<?xml version="1.0" encoding="utf-8" standalone="no"?>
<!DOCTYPE svg PUBLIC "-//W3C//DTD SVG 1.1//EN"
  "http://www.w3.org/Graphics/SVG/1.1/DTD/svg11.dtd">
<svg xmlns:xlink="http://www.w3.org/1999/xlink" width="855.575pt" height="576pt" viewBox="0 0 855.575 576" xmlns="http://www.w3.org/2000/svg" version="1.1">
 <metadata>
  <rdf:RDF xmlns:dc="http://purl.org/dc/elements/1.1/" xmlns:cc="http://creativecommons.org/ns#" xmlns:rdf="http://www.w3.org/1999/02/22-rdf-syntax-ns#">
   <cc:Work>
    <dc:type rdf:resource="http://purl.org/dc/dcmitype/StillImage"/>
    <dc:date>2022-07-02T13:02:03.156820</dc:date>
    <dc:format>image/svg+xml</dc:format>
    <dc:creator>
     <cc:Agent>
      <dc:title>Matplotlib v3.5.1, https://matplotlib.org/</dc:title>
     </cc:Agent>
    </dc:creator>
   </cc:Work>
  </rdf:RDF>
 </metadata>
 <defs>
  <style type="text/css">*{stroke-linejoin: round; stroke-linecap: butt}</style>
 </defs>
 <g id="figure_1">
  <g id="patch_1">
   <path d="M 0 576 
L 855.575 576 
L 855.575 0 
L 0 0 
L 0 576 
z
" style="fill: none"/>
  </g>
  <g id="axes_1">
   <g id="patch_2">
    <path d="M 110.912822 493.58 
L 567.44425 493.58 
L 567.44425 25.92 
L 110.912822 25.92 
L 110.912822 493.58 
z
" style="fill: none"/>
   </g>
   <g id="matplotlib.axis_1">
    <g id="xtick_1">
     <g id="text_1">
      <text style="fill: #262626; font: 22px 'sans-serif'; text-anchor: middle" x="125.337595" y="518.827188" transform="rotate(-0, 125.337595, 518.827188)">0</text>
     </g>
    </g>
    <g id="xtick_2">
     <g id="text_2">
      <text style="fill: #262626; font: 22px 'sans-serif'; text-anchor: middle" x="251.870696" y="518.827188" transform="rotate(-0, 251.870696, 518.827188)">2</text>
     </g>
    </g>
    <g id="xtick_3">
     <g id="text_3">
      <text style="fill: #262626; font: 22px 'sans-serif'; text-anchor: middle" x="378.403797" y="518.827188" transform="rotate(-0, 378.403797, 518.827188)">4</text>
     </g>
    </g>
    <g id="xtick_4">
     <g id="text_4">
      <text style="fill: #262626; font: 22px 'sans-serif'; text-anchor: middle" x="504.936898" y="518.827188" transform="rotate(-0, 504.936898, 518.827188)">6</text>
     </g>
    </g>
    <g id="text_5">
     <text style="fill: #262626; font: 24px 'sans-serif'; text-anchor: middle" x="339.178536" y="544.378438" transform="rotate(-0, 339.178536, 544.378438)">Risk Ratio</text>
    </g>
   </g>
   <g id="matplotlib.axis_2">
    <g id="ytick_1">
     <g id="text_6">
      <text style="fill: #262626; font: 22px 'sans-serif'; text-anchor: end" x="101.412822" y="72.76526" transform="rotate(-0, 101.412822, 72.76526)">1</text>
     </g>
    </g>
    <g id="ytick_2">
     <g id="text_7">
      <text style="fill: #262626; font: 22px 'sans-serif'; text-anchor: end" x="101.412822" y="150.708594" transform="rotate(-0, 101.412822, 150.708594)">2</text>
     </g>
    </g>
    <g id="ytick_3">
     <g id="text_8">
      <text style="fill: #262626; font: 22px 'sans-serif'; text-anchor: end" x="101.412822" y="228.651927" transform="rotate(-0, 101.412822, 228.651927)">3</text>
     </g>
    </g>
    <g id="ytick_4">
     <g id="text_9">
      <text style="fill: #262626; font: 22px 'sans-serif'; text-anchor: end" x="101.412822" y="306.59526" transform="rotate(-0, 101.412822, 306.59526)">4</text>
     </g>
    </g>
    <g id="ytick_5">
     <g id="text_10">
      <text style="fill: #262626; font: 22px 'sans-serif'; text-anchor: end" x="101.412822" y="384.538594" transform="rotate(-0, 101.412822, 384.538594)">5</text>
     </g>
    </g>
    <g id="ytick_6">
     <g id="text_11">
      <text style="fill: #262626; font: 22px 'sans-serif'; text-anchor: end" x="101.412822" y="462.481927" transform="rotate(-0, 101.412822, 462.481927)">6</text>
     </g>
    </g>
    <g id="text_12">
     <text style="fill: #262626; font: 24px 'sans-serif'; text-anchor: middle" x="80.127509" y="259.75" transform="rotate(-90, 80.127509, 259.75)">Time(months)</text>
    </g>
   </g>
   <g id="PathCollection_1">
    <path d="M 389.791776 70.481837 
C 391.274307 70.481837 392.696316 69.892821 393.744623 68.844514 
C 394.792931 67.796206 395.381946 66.374197 395.381946 64.891667 
C 395.381946 63.409136 394.792931 61.987127 393.744623 60.93882 
C 392.696316 59.890512 391.274307 59.301497 389.791776 59.301497 
C 388.309246 59.301497 386.887236 59.890512 385.838929 60.93882 
C 384.790622 61.987127 384.201606 63.409136 384.201606 64.891667 
C 384.201606 66.374197 384.790622 67.796206 385.838929 68.844514 
C 386.887236 69.892821 388.309246 70.481837 389.791776 70.481837 
z
" clip-path="url(#p6c9b16ab10)" style="fill: #ff0000; stroke: #000000; stroke-width: 0.894427"/>
    <path d="M 288.03645 70.481837 
L 299.216789 70.481837 
L 299.216789 59.301497 
L 288.03645 59.301497 
z
" clip-path="url(#p6c9b16ab10)" style="fill: #ff0000; stroke: #000000; stroke-width: 0.894427"/>
    <path d="M 145.582891 70.481837 
C 147.065422 70.481837 148.487431 69.892821 149.535738 68.844514 
C 150.584046 67.796206 151.173061 66.374197 151.173061 64.891667 
C 151.173061 63.409136 150.584046 61.987127 149.535738 60.93882 
C 148.487431 59.890512 147.065422 59.301497 145.582891 59.301497 
C 144.100361 59.301497 142.678352 59.890512 141.630044 60.93882 
C 140.581737 61.987127 139.992721 63.409136 139.992721 64.891667 
C 139.992721 66.374197 140.581737 67.796206 141.630044 68.844514 
C 142.678352 69.892821 144.100361 70.481837 145.582891 70.481837 
z
" clip-path="url(#p6c9b16ab10)" style="stroke: #000000; stroke-width: 0.894427"/>
    <path d="M 146.319376 70.481837 
L 157.499716 70.481837 
L 157.499716 59.301497 
L 146.319376 59.301497 
z
" clip-path="url(#p6c9b16ab10)" style="stroke: #000000; stroke-width: 0.894427"/>
    <path d="M 382.832456 148.42517 
C 384.314986 148.42517 385.736995 147.836154 386.785303 146.787847 
C 387.83361 145.73954 388.422626 144.31753 388.422626 142.835 
C 388.422626 141.35247 387.83361 139.93046 386.785303 138.882153 
C 385.736995 137.833846 384.314986 137.24483 382.832456 137.24483 
C 381.349925 137.24483 379.927916 137.833846 378.879609 138.882153 
C 377.831301 139.93046 377.242286 141.35247 377.242286 142.835 
C 377.242286 144.31753 377.831301 145.73954 378.879609 146.787847 
C 379.927916 147.836154 381.349925 148.42517 382.832456 148.42517 
z
" clip-path="url(#p6c9b16ab10)" style="fill: #ff0000; stroke: #000000; stroke-width: 0.894427"/>
    <path d="M 289.301781 148.42517 
L 300.48212 148.42517 
L 300.48212 137.24483 
L 289.301781 137.24483 
z
" clip-path="url(#p6c9b16ab10)" style="fill: #ff0000; stroke: #000000; stroke-width: 0.894427"/>
    <path d="M 148.746219 148.42517 
C 150.228749 148.42517 151.650759 147.836154 152.699066 146.787847 
C 153.747373 145.73954 154.336389 144.31753 154.336389 142.835 
C 154.336389 141.35247 153.747373 139.93046 152.699066 138.882153 
C 151.650759 137.833846 150.228749 137.24483 148.746219 137.24483 
C 147.263688 137.24483 145.841679 137.833846 144.793372 138.882153 
C 143.745064 139.93046 143.156049 141.35247 143.156049 142.835 
C 143.156049 144.31753 143.745064 145.73954 144.793372 146.787847 
C 145.841679 147.836154 147.263688 148.42517 148.746219 148.42517 
z
" clip-path="url(#p6c9b16ab10)" style="stroke: #000000; stroke-width: 0.894427"/>
    <path d="M 137.462059 148.42517 
L 148.642399 148.42517 
L 148.642399 137.24483 
L 137.462059 137.24483 
z
" clip-path="url(#p6c9b16ab10)" style="stroke: #000000; stroke-width: 0.894427"/>
    <path d="M 306.912595 226.368503 
C 308.395125 226.368503 309.817135 225.779488 310.865442 224.73118 
C 311.913749 223.682873 312.502765 222.260864 312.502765 220.778333 
C 312.502765 219.295803 311.913749 217.873794 310.865442 216.825486 
C 309.817135 215.777179 308.395125 215.188163 306.912595 215.188163 
C 305.430065 215.188163 304.008055 215.777179 302.959748 216.825486 
C 301.911441 217.873794 301.322425 219.295803 301.322425 220.778333 
C 301.322425 222.260864 301.911441 223.682873 302.959748 224.73118 
C 304.008055 225.779488 305.430065 226.368503 306.912595 226.368503 
z
" clip-path="url(#p6c9b16ab10)" style="fill: #ff0000; stroke: #000000; stroke-width: 0.894427"/>
    <path d="M 226.667896 226.368503 
L 237.848235 226.368503 
L 237.848235 215.188163 
L 226.667896 215.188163 
z
" clip-path="url(#p6c9b16ab10)" style="fill: #ff0000; stroke: #000000; stroke-width: 0.894427"/>
    <path d="M 147.480888 226.368503 
C 148.963418 226.368503 150.385428 225.779488 151.433735 224.73118 
C 152.482042 223.682873 153.071058 222.260864 153.071058 220.778333 
C 153.071058 219.295803 152.482042 217.873794 151.433735 216.825486 
C 150.385428 215.777179 148.963418 215.188163 147.480888 215.188163 
C 145.998357 215.188163 144.576348 215.777179 143.528041 216.825486 
C 142.479733 217.873794 141.890718 219.295803 141.890718 220.778333 
C 141.890718 222.260864 142.479733 223.682873 143.528041 224.73118 
C 144.576348 225.779488 145.998357 226.368503 147.480888 226.368503 
z
" clip-path="url(#p6c9b16ab10)" style="stroke: #000000; stroke-width: 0.894427"/>
    <path d="M 133.666066 226.368503 
L 144.846406 226.368503 
L 144.846406 215.188163 
L 133.666066 215.188163 
z
" clip-path="url(#p6c9b16ab10)" style="stroke: #000000; stroke-width: 0.894427"/>
    <path d="M 282.23864 304.311837 
C 283.721171 304.311837 285.14318 303.722821 286.191487 302.674514 
C 287.239795 301.626206 287.82881 300.204197 287.82881 298.721667 
C 287.82881 297.239136 287.239795 295.817127 286.191487 294.76882 
C 285.14318 293.720512 283.721171 293.131497 282.23864 293.131497 
C 280.75611 293.131497 279.334101 293.720512 278.285793 294.76882 
C 277.237486 295.817127 276.64847 297.239136 276.64847 298.721667 
C 276.64847 300.204197 277.237486 301.626206 278.285793 302.674514 
C 279.334101 303.722821 280.75611 304.311837 282.23864 304.311837 
z
" clip-path="url(#p6c9b16ab10)" style="fill: #ff0000; stroke: #000000; stroke-width: 0.894427"/>
    <path d="M 263.99516 304.311837 
L 275.1755 304.311837 
L 275.1755 293.131497 
L 263.99516 293.131497 
z
" clip-path="url(#p6c9b16ab10)" style="fill: #ff0000; stroke: #000000; stroke-width: 0.894427"/>
    <path d="M 146.848222 304.311837 
C 148.330753 304.311837 149.752762 303.722821 150.801069 302.674514 
C 151.849377 301.626206 152.438392 300.204197 152.438392 298.721667 
C 152.438392 297.239136 151.849377 295.817127 150.801069 294.76882 
C 149.752762 293.720512 148.330753 293.131497 146.848222 293.131497 
C 145.365692 293.131497 143.943683 293.720512 142.895375 294.76882 
C 141.847068 295.817127 141.258052 297.239136 141.258052 298.721667 
C 141.258052 300.204197 141.847068 301.626206 142.895375 302.674514 
C 143.943683 303.722821 145.365692 304.311837 146.848222 304.311837 
z
" clip-path="url(#p6c9b16ab10)" style="stroke: #000000; stroke-width: 0.894427"/>
    <path d="M 139.360056 304.311837 
L 150.540396 304.311837 
L 150.540396 293.131497 
L 139.360056 293.131497 
z
" clip-path="url(#p6c9b16ab10)" style="stroke: #000000; stroke-width: 0.894427"/>
    <path d="M 245.544041 382.25517 
C 247.026571 382.25517 248.448581 381.666154 249.496888 380.617847 
C 250.545195 379.56954 251.134211 378.14753 251.134211 376.665 
C 251.134211 375.18247 250.545195 373.76046 249.496888 372.712153 
C 248.448581 371.663846 247.026571 371.07483 245.544041 371.07483 
C 244.061511 371.07483 242.639501 371.663846 241.591194 372.712153 
C 240.542887 373.76046 239.953871 375.18247 239.953871 376.665 
C 239.953871 378.14753 240.542887 379.56954 241.591194 380.617847 
C 242.639501 381.666154 244.061511 382.25517 245.544041 382.25517 
z
" clip-path="url(#p6c9b16ab10)" style="fill: #ff0000; stroke: #000000; stroke-width: 0.894427"/>
    <path d="M 246.913192 382.25517 
L 258.093532 382.25517 
L 258.093532 371.07483 
L 246.913192 371.07483 
z
" clip-path="url(#p6c9b16ab10)" style="fill: #ff0000; stroke: #000000; stroke-width: 0.894427"/>
    <path d="M 145.582891 382.25517 
C 147.065422 382.25517 148.487431 381.666154 149.535738 380.617847 
C 150.584046 379.56954 151.173061 378.14753 151.173061 376.665 
C 151.173061 375.18247 150.584046 373.76046 149.535738 372.712153 
C 148.487431 371.663846 147.065422 371.07483 145.582891 371.07483 
C 144.100361 371.07483 142.678352 371.663846 141.630044 372.712153 
C 140.581737 373.76046 139.992721 375.18247 139.992721 376.665 
C 139.992721 378.14753 140.581737 379.56954 141.630044 380.617847 
C 142.678352 381.666154 144.100361 382.25517 145.582891 382.25517 
z
" clip-path="url(#p6c9b16ab10)" style="stroke: #000000; stroke-width: 0.894427"/>
    <path d="M 156.442024 382.25517 
L 167.622364 382.25517 
L 167.622364 371.07483 
L 156.442024 371.07483 
z
" clip-path="url(#p6c9b16ab10)" style="stroke: #000000; stroke-width: 0.894427"/>
    <path d="M 213.910766 460.198503 
C 215.393296 460.198503 216.815306 459.609488 217.863613 458.56118 
C 218.91192 457.512873 219.500936 456.090864 219.500936 454.608333 
C 219.500936 453.125803 218.91192 451.703794 217.863613 450.655486 
C 216.815306 449.607179 215.393296 449.018163 213.910766 449.018163 
C 212.428235 449.018163 211.006226 449.607179 209.957919 450.655486 
C 208.909611 451.703794 208.320596 453.125803 208.320596 454.608333 
C 208.320596 456.090864 208.909611 457.512873 209.957919 458.56118 
C 211.006226 459.609488 212.428235 460.198503 213.910766 460.198503 
z
" clip-path="url(#p6c9b16ab10)" style="fill: #ff0000; stroke: #000000; stroke-width: 0.894427"/>
    <path d="M 248.811188 460.198503 
L 259.991528 460.198503 
L 259.991528 449.018163 
L 248.811188 449.018163 
z
" clip-path="url(#p6c9b16ab10)" style="fill: #ff0000; stroke: #000000; stroke-width: 0.894427"/>
    <path d="M 146.215557 460.198503 
C 147.698087 460.198503 149.120097 459.609488 150.168404 458.56118 
C 151.216711 457.512873 151.805727 456.090864 151.805727 454.608333 
C 151.805727 453.125803 151.216711 451.703794 150.168404 450.655486 
C 149.120097 449.607179 147.698087 449.018163 146.215557 449.018163 
C 144.733026 449.018163 143.311017 449.607179 142.26271 450.655486 
C 141.214402 451.703794 140.625387 453.125803 140.625387 454.608333 
C 140.625387 456.090864 141.214402 457.512873 142.26271 458.56118 
C 143.311017 459.609488 144.733026 460.198503 146.215557 460.198503 
z
" clip-path="url(#p6c9b16ab10)" style="stroke: #000000; stroke-width: 0.894427"/>
    <path d="M 156.442024 460.198503 
L 167.622364 460.198503 
L 167.622364 449.018163 
L 156.442024 449.018163 
z
" clip-path="url(#p6c9b16ab10)" style="stroke: #000000; stroke-width: 0.894427"/>
   </g>
   <g id="PathCollection_2"/>
   <g id="PathCollection_3"/>
   <g id="PathCollection_4"/>
   <g id="PathCollection_5"/>
   <g id="line2d_1">
    <path d="M 188.604146 493.58 
L 188.604146 25.92 
" clip-path="url(#p6c9b16ab10)" style="fill: none; stroke: #000000; stroke-width: 1.5; stroke-linecap: round"/>
   </g>
   <g id="line2d_2">
    <path d="M 291.095957 64.891667 
L 546.692821 64.891667 
" clip-path="url(#p6c9b16ab10)" style="fill: none; stroke: #808080; stroke-opacity: 0.75; stroke-width: 1.5; stroke-linecap: round"/>
   </g>
   <g id="line2d_3">
    <path d="M 222.768083 64.891667 
L 416.363727 64.891667 
" clip-path="url(#p6c9b16ab10)" style="fill: none; stroke: #808080; stroke-opacity: 0.75; stroke-width: 1.5; stroke-linecap: round"/>
   </g>
   <g id="line2d_4">
    <path d="M 137.35824 64.891667 
L 158.236201 64.891667 
" clip-path="url(#p6c9b16ab10)" style="fill: none; stroke: #808080; stroke-opacity: 0.75; stroke-width: 1.5; stroke-linecap: round"/>
   </g>
   <g id="line2d_5">
    <path d="M 139.888902 64.891667 
L 173.420174 64.891667 
" clip-path="url(#p6c9b16ab10)" style="fill: none; stroke: #808080; stroke-opacity: 0.75; stroke-width: 1.5; stroke-linecap: round"/>
   </g>
   <g id="line2d_6">
    <path d="M 290.463292 142.835 
L 527.712856 142.835 
" clip-path="url(#p6c9b16ab10)" style="fill: none; stroke: #808080; stroke-opacity: 0.75; stroke-width: 1.5; stroke-linecap: round"/>
   </g>
   <g id="line2d_7">
    <path d="M 222.135417 142.835 
L 422.690382 142.835 
" clip-path="url(#p6c9b16ab10)" style="fill: none; stroke: #808080; stroke-opacity: 0.75; stroke-width: 1.5; stroke-linecap: round"/>
   </g>
   <g id="line2d_8">
    <path d="M 139.256236 142.835 
L 163.930191 142.835 
" clip-path="url(#p6c9b16ab10)" style="fill: none; stroke: #808080; stroke-opacity: 0.75; stroke-width: 1.5; stroke-linecap: round"/>
   </g>
   <g id="line2d_9">
    <path d="M 133.562247 142.835 
L 162.66486 142.835 
" clip-path="url(#p6c9b16ab10)" style="fill: none; stroke: #808080; stroke-opacity: 0.75; stroke-width: 1.5; stroke-linecap: round"/>
   </g>
   <g id="line2d_10">
    <path d="M 241.748048 220.778333 
L 408.139076 220.778333 
" clip-path="url(#p6c9b16ab10)" style="fill: none; stroke: #808080; stroke-opacity: 0.75; stroke-width: 1.5; stroke-linecap: round"/>
   </g>
   <g id="line2d_11">
    <path d="M 184.808153 220.778333 
L 317.035243 220.778333 
" clip-path="url(#p6c9b16ab10)" style="fill: none; stroke: #808080; stroke-opacity: 0.75; stroke-width: 1.5; stroke-linecap: round"/>
   </g>
   <g id="line2d_12">
    <path d="M 138.623571 220.778333 
L 162.66486 220.778333 
" clip-path="url(#p6c9b16ab10)" style="fill: none; stroke: #808080; stroke-opacity: 0.75; stroke-width: 1.5; stroke-linecap: round"/>
   </g>
   <g id="line2d_13">
    <path d="M 131.66425 220.778333 
L 156.97087 220.778333 
" clip-path="url(#p6c9b16ab10)" style="fill: none; stroke: #808080; stroke-opacity: 0.75; stroke-width: 1.5; stroke-linecap: round"/>
   </g>
   <g id="line2d_14">
    <path d="M 225.298745 298.721667 
L 370.811811 298.721667 
" clip-path="url(#p6c9b16ab10)" style="fill: none; stroke: #808080; stroke-opacity: 0.75; stroke-width: 1.5; stroke-linecap: round"/>
   </g>
   <g id="line2d_15">
    <path d="M 205.686114 298.721667 
L 384.730452 298.721667 
" clip-path="url(#p6c9b16ab10)" style="fill: none; stroke: #808080; stroke-opacity: 0.75; stroke-width: 1.5; stroke-linecap: round"/>
   </g>
   <g id="line2d_16">
    <path d="M 137.35824 298.721667 
L 162.66486 298.721667 
" clip-path="url(#p6c9b16ab10)" style="fill: none; stroke: #808080; stroke-opacity: 0.75; stroke-width: 1.5; stroke-linecap: round"/>
   </g>
   <g id="line2d_17">
    <path d="M 133.562247 298.721667 
L 171.522177 298.721667 
" clip-path="url(#p6c9b16ab10)" style="fill: none; stroke: #808080; stroke-opacity: 0.75; stroke-width: 1.5; stroke-linecap: round"/>
   </g>
   <g id="line2d_18">
    <path d="M 201.890121 376.665 
L 313.871916 376.665 
" clip-path="url(#p6c9b16ab10)" style="fill: none; stroke: #808080; stroke-opacity: 0.75; stroke-width: 1.5; stroke-linecap: round"/>
   </g>
   <g id="line2d_19">
    <path d="M 199.992125 376.665 
L 341.709198 376.665 
" clip-path="url(#p6c9b16ab10)" style="fill: none; stroke: #808080; stroke-opacity: 0.75; stroke-width: 1.5; stroke-linecap: round"/>
   </g>
   <g id="line2d_20">
    <path d="M 136.092909 376.665 
L 163.930191 376.665 
" clip-path="url(#p6c9b16ab10)" style="fill: none; stroke: #808080; stroke-opacity: 0.75; stroke-width: 1.5; stroke-linecap: round"/>
   </g>
   <g id="line2d_21">
    <path d="M 143.684895 376.665 
L 198.094128 376.665 
" clip-path="url(#p6c9b16ab10)" style="fill: none; stroke: #808080; stroke-opacity: 0.75; stroke-width: 1.5; stroke-linecap: round"/>
   </g>
   <g id="line2d_22">
    <path d="M 180.379494 454.608333 
L 267.054668 454.608333 
" clip-path="url(#p6c9b16ab10)" style="fill: none; stroke: #808080; stroke-opacity: 0.75; stroke-width: 1.5; stroke-linecap: round"/>
   </g>
   <g id="line2d_23">
    <path d="M 205.053449 454.608333 
L 333.484546 454.608333 
" clip-path="url(#p6c9b16ab10)" style="fill: none; stroke: #808080; stroke-opacity: 0.75; stroke-width: 1.5; stroke-linecap: round"/>
   </g>
   <g id="line2d_24">
    <path d="M 136.092909 454.608333 
L 166.460853 454.608333 
" clip-path="url(#p6c9b16ab10)" style="fill: none; stroke: #808080; stroke-opacity: 0.75; stroke-width: 1.5; stroke-linecap: round"/>
   </g>
   <g id="line2d_25">
    <path d="M 144.950226 454.608333 
L 194.298135 454.608333 
" clip-path="url(#p6c9b16ab10)" style="fill: none; stroke: #808080; stroke-opacity: 0.75; stroke-width: 1.5; stroke-linecap: round"/>
   </g>
   <g id="patch_3">
    <path d="M 110.912822 493.58 
L 567.44425 493.58 
" style="fill: none; stroke: #262626; stroke-width: 1.25; stroke-linejoin: miter; stroke-linecap: square"/>
   </g>
  </g>
  <g id="legend_1">
   <g id="text_13">
    <text style="fill: #262626; font: 24px 'sans-serif'; text-anchor: start" x="591.6425" y="214.960469" transform="rotate(-0, 591.6425, 214.960469)">Perception Of Support</text>
   </g>
   <g id="PathCollection_6">
    <defs>
     <path id="m06d9243c06" d="M 0 3 
C 0.795609 3 1.55874 2.683901 2.12132 2.12132 
C 2.683901 1.55874 3 0.795609 3 0 
C 3 -0.795609 2.683901 -1.55874 2.12132 -2.12132 
C 1.55874 -2.683901 0.795609 -3 0 -3 
C -0.795609 -3 -1.55874 -2.683901 -2.12132 -2.12132 
C -2.683901 -1.55874 -3 -0.795609 -3 0 
C -3 0.795609 -2.683901 1.55874 -2.12132 2.12132 
C -1.55874 2.683901 -0.795609 3 0 3 
z
" style="stroke: #ff0000"/>
    </defs>
    <g>
     <use xlink:href="#m06d9243c06" x="596.0425" y="240.970781" style="fill: #ff0000; stroke: #ff0000"/>
    </g>
   </g>
   <g id="text_14">
    <text style="fill: #262626; font: 22px 'sans-serif'; text-anchor: start" x="635.6425" y="246.745781" transform="rotate(-0, 635.6425, 246.745781)">helpful</text>
   </g>
   <g id="PathCollection_7">
    <defs>
     <path id="m8826bf1acf" d="M 0 3 
C 0.795609 3 1.55874 2.683901 2.12132 2.12132 
C 2.683901 1.55874 3 0.795609 3 0 
C 3 -0.795609 2.683901 -1.55874 2.12132 -2.12132 
C 1.55874 -2.683901 0.795609 -3 0 -3 
C -0.795609 -3 -1.55874 -2.683901 -2.12132 -2.12132 
C -2.683901 -1.55874 -3 -0.795609 -3 0 
C -3 0.795609 -2.683901 1.55874 -2.12132 2.12132 
C -1.55874 2.683901 -0.795609 3 0 3 
z
" style="stroke: #000000"/>
    </defs>
    <g>
     <use xlink:href="#m8826bf1acf" x="596.0425" y="272.358594" style="stroke: #000000"/>
    </g>
   </g>
   <g id="text_15">
    <text style="fill: #262626; font: 22px 'sans-serif'; text-anchor: start" x="635.6425" y="278.133594" transform="rotate(-0, 635.6425, 278.133594)">unhelpful</text>
   </g>
   <g id="text_16">
    <text style="fill: #262626; font: 24px 'sans-serif'; text-anchor: start" x="591.6425" y="310.977344" transform="rotate(-0, 591.6425, 310.977344)">Breastfeeding Intensity</text>
   </g>
   <g id="PathCollection_8">
    <defs>
     <path id="m850a0f47d9" d="M 0 3 
C 0.795609 3 1.55874 2.683901 2.12132 2.12132 
C 2.683901 1.55874 3 0.795609 3 0 
C 3 -0.795609 2.683901 -1.55874 2.12132 -2.12132 
C 1.55874 -2.683901 0.795609 -3 0 -3 
C -0.795609 -3 -1.55874 -2.683901 -2.12132 -2.12132 
C -2.683901 -1.55874 -3 -0.795609 -3 0 
C -3 0.795609 -2.683901 1.55874 -2.12132 2.12132 
C -1.55874 2.683901 -0.795609 3 0 3 
z
" style="stroke: #333333"/>
    </defs>
    <g>
     <use xlink:href="#m850a0f47d9" x="596.0425" y="337.000781" style="fill: #333333; stroke: #333333"/>
    </g>
   </g>
   <g id="text_17">
    <text style="fill: #262626; font: 22px 'sans-serif'; text-anchor: start" x="635.6425" y="342.775781" transform="rotate(-0, 635.6425, 342.775781)">high</text>
   </g>
   <g id="PathCollection_9">
    <defs>
     <path id="mc7eae2bf77" d="M -3 3 
L 3 3 
L 3 -3 
L -3 -3 
z
" style="stroke: #333333"/>
    </defs>
    <g>
     <use xlink:href="#mc7eae2bf77" x="596.0425" y="368.378281" style="fill: #333333; stroke: #333333"/>
    </g>
   </g>
   <g id="text_18">
    <text style="fill: #262626; font: 22px 'sans-serif'; text-anchor: start" x="635.6425" y="374.153281" transform="rotate(-0, 635.6425, 374.153281)">medium</text>
   </g>
  </g>
 </g>
 <defs>
  <clipPath id="p6c9b16ab10">
   <rect x="110.912822" y="25.92" width="456.531428" height="467.66"/>
  </clipPath>
 </defs>
</svg>
